<svg version="1.1" id="Layer_1" xmlns="http://www.w3.org/2000/svg" xmlns:xlink="http://www.w3.org/1999/xlink" x="0px" y="0px"
	 width="100%" viewBox="0 0 500 500" enable-background="new 0 0 500 500" xml:space="preserve">
<path fill="#000000" opacity="1.000000" stroke="none" 
	d="
M497.263916,501.000000 
	C331.573029,501.000000 166.411148,501.000000 1.124639,501.000000 
	C1.124639,334.421356 1.124639,167.842575 1.124639,1.131895 
	C167.573807,1.131895 334.147766,1.131895 500.860840,1.131895 
	C500.860840,167.568954 500.860840,334.138062 500.860840,501.000000 
	C499.935822,501.000000 498.864410,501.000000 497.263916,501.000000 
M376.248108,345.439209 
	C376.453064,345.657043 376.670624,345.861481 376.959930,346.072021 
	C376.959930,346.072021 377.048859,345.903137 376.753784,345.568237 
	C376.550537,345.349335 376.334015,345.144440 376.043213,344.929932 
	C376.043213,344.929932 375.953888,345.103607 376.248108,345.439209 
M339.073059,339.021149 
	C339.073059,339.021149 338.930420,338.953339 338.901550,339.007782 
	C338.901550,339.007782 339.048584,339.069916 339.073059,339.021149 
M71.142349,286.033478 
	C71.142349,286.033478 70.900322,285.953125 70.794823,286.034149 
	C70.794823,286.034149 70.858467,286.239685 70.858467,286.239685 
	C70.858467,286.239685 71.055267,286.105255 71.142349,286.033478 
M333.961151,362.031464 
	C333.961151,362.031464 334.150391,361.931183 334.150391,361.931183 
	C334.150391,361.931183 334.025391,361.724548 333.987488,361.550812 
	C333.866638,361.596832 333.745758,361.642883 333.624908,361.688934 
	C333.698853,361.777924 333.772827,361.866913 333.961151,362.031464 
M330.945007,357.336334 
	C330.945007,357.336334 331.271149,357.420898 331.271149,357.420898 
	C331.271149,357.420898 331.066315,357.072662 331.030273,356.903778 
	C331.030273,356.903778 330.709564,356.773773 330.709564,356.773773 
	C330.709564,356.773773 330.895844,357.191559 330.945007,357.336334 
M367.948425,349.340149 
	C367.948425,349.340149 368.279449,349.423523 368.279449,349.423523 
	C368.279449,349.423523 368.085846,349.061920 368.048615,348.886078 
	C368.048615,348.886078 367.706665,348.757355 367.706665,348.757355 
	C367.706665,348.757355 367.901855,349.194366 367.948425,349.340149 
M340.973450,367.885040 
	C340.973450,367.885040 340.921844,368.032562 340.957153,368.164520 
	C340.957153,368.164520 341.193756,368.245789 341.193756,368.245789 
	C341.193756,368.245789 341.027130,367.925629 340.973450,367.885040 
M78.679359,291.997833 
	C78.589951,292.191284 78.500549,292.384766 78.411140,292.578217 
	C78.639793,292.412445 78.868446,292.246704 79.108376,292.009583 
	C79.108376,292.009583 78.912437,291.898560 78.679359,291.997833 
M335.632843,310.037659 
	C336.539215,309.697021 337.445557,309.356415 338.351898,309.015778 
	C338.154327,308.660736 337.956787,308.305725 337.759216,307.950684 
	C336.816559,308.616608 335.873932,309.282501 334.904358,310.002747 
	C334.904358,310.002747 335.054443,310.073334 335.632843,310.037659 
M366.989227,335.863068 
	C366.989227,335.863068 366.930206,336.064514 366.607117,336.606781 
	C364.894409,337.687439 363.181671,338.768066 360.910461,340.201080 
	C362.670013,341.653748 364.271637,342.976044 365.873260,344.298309 
	C366.448608,344.084351 367.023956,343.870392 367.599274,343.656403 
	C367.419861,341.082642 367.240448,338.508911 366.989227,335.863068 
M369.918060,365.967438 
	C369.500519,365.096619 369.082947,364.225769 368.665405,363.354919 
	C367.957153,363.815369 367.248901,364.275818 366.540680,364.736267 
	C367.519745,365.232697 368.498840,365.729156 369.918060,365.967438 
M346.046478,315.957855 
	C345.404022,316.437897 344.761566,316.917938 344.119110,317.397980 
	C344.879669,317.790314 345.640228,318.182648 346.400818,318.574951 
	C346.393890,317.798889 346.386932,317.022797 346.046478,315.957855 
M377.995300,354.776093 
	C378.290924,355.006683 378.586548,355.237274 378.882172,355.467865 
	C379.028503,355.255951 379.174835,355.044037 379.321167,354.832123 
	C378.935211,354.743317 378.549225,354.654510 377.995300,354.776093 
M345.598999,365.863403 
	C345.556915,365.972504 345.514801,366.081573 345.472717,366.190674 
	C345.535858,366.113617 345.599030,366.036560 345.598999,365.863403 
M336.776123,365.343201 
	C336.911804,365.479706 337.047455,365.616211 337.183136,365.752716 
	C337.098145,365.583893 337.013123,365.415070 336.776123,365.343201 
M354.973236,325.980011 
	C354.973236,325.980011 355.005554,325.955688 354.973236,325.980011 
M74.410500,293.490082 
	C74.410500,293.490082 74.653534,293.563538 74.653534,293.563538 
	C74.653534,293.563538 74.464249,293.406128 74.410500,293.490082 
M329.458466,348.550690 
	C329.458466,348.550690 329.441864,348.499878 329.458466,348.550690 
M366.010010,371.118713 
	C366.010010,371.118713 366.288818,371.312469 366.288818,371.312469 
	C366.288818,371.312469 366.108948,371.025330 366.010010,371.118713 
M374.476105,353.002930 
	C374.476105,353.002930 374.524902,352.989136 374.476105,353.002930 
M70.517532,290.986908 
	C70.517532,290.986908 70.485359,290.994904 70.517532,290.986908 
M341.504333,321.085602 
	C341.504333,321.085602 341.428589,321.023010 341.504333,321.085602 
M335.502594,314.946533 
	C335.502594,314.946533 335.556946,314.992737 335.502594,314.946533 
M345.523834,363.485321 
	C345.523834,363.485321 345.484161,363.494995 345.523834,363.485321 
M347.463989,372.509064 
	C347.463989,372.509064 347.519623,372.487885 347.463989,372.509064 
M360.531311,373.488800 
	C360.531311,373.488800 360.481262,373.505432 360.531311,373.488800 
M343.455444,335.506592 
	C343.455444,335.506592 343.516541,335.480774 343.455444,335.506592 
M337.508484,316.538605 
	C337.508484,316.538605 337.485748,316.481201 337.508484,316.538605 
M343.449402,322.505127 
	C343.449402,322.505127 343.512634,322.477325 343.449402,322.505127 
M346.516998,324.520325 
	C346.516998,324.520325 346.512024,324.486847 346.516998,324.520325 
M348.459259,327.507507 
	C348.459259,327.507507 348.519348,327.482697 348.459259,327.507507 
M341.471161,336.515747 
	C341.471161,336.515747 341.520111,336.499878 341.471161,336.515747 
M336.531464,342.488495 
	C336.531464,342.488495 336.482086,342.504822 336.531464,342.488495 
z"/>
<path fill="#050505" opacity="1.000000" stroke="none" 
	d="
M367.061035,335.935150 
	C367.240448,338.508911 367.419861,341.082642 367.599274,343.656403 
	C367.023956,343.870392 366.448608,344.084351 365.873260,344.298309 
	C364.271637,342.976044 362.670013,341.653748 360.910461,340.201080 
	C363.181671,338.768066 364.894409,337.687439 366.796631,336.298523 
	C366.986176,335.990265 367.061035,335.935150 367.061035,335.935150 
z"/>
<path fill="#050505" opacity="1.000000" stroke="none" 
	d="
M369.697998,366.096527 
	C368.498840,365.729156 367.519745,365.232697 366.540680,364.736267 
	C367.248901,364.275818 367.957153,363.815369 368.665405,363.354919 
	C369.082947,364.225769 369.500519,365.096619 369.697998,366.096527 
z"/>
<path fill="#050505" opacity="1.000000" stroke="none" 
	d="
M346.213257,316.102295 
	C346.386932,317.022797 346.393890,317.798889 346.400818,318.574951 
	C345.640228,318.182648 344.879669,317.790314 344.119110,317.397980 
	C344.761566,316.917938 345.404022,316.437897 346.213257,316.102295 
z"/>
<path fill="#050505" opacity="1.000000" stroke="none" 
	d="
M378.079285,354.670898 
	C378.549225,354.654510 378.935211,354.743317 379.321167,354.832123 
	C379.174835,355.044037 379.028503,355.255951 378.882141,355.467865 
	C378.586548,355.237274 378.290924,355.006683 378.079285,354.670898 
z"/>
<path fill="#050505" opacity="1.000000" stroke="none" 
	d="
M334.931274,309.948395 
	C335.873932,309.282501 336.816559,308.616608 337.759216,307.950684 
	C337.956787,308.305725 338.154327,308.660736 338.351898,309.015778 
	C337.445557,309.356415 336.539215,309.697021 335.310913,310.026184 
	C334.988953,310.014740 334.931274,309.948395 334.931274,309.948395 
z"/>
<path fill="#050505" opacity="1.000000" stroke="none" 
	d="
M345.630615,365.911469 
	C345.599030,366.036560 345.535858,366.113617 345.472717,366.190674 
	C345.514801,366.081573 345.556915,365.972504 345.630615,365.911469 
z"/>
<path fill="#050505" opacity="1.000000" stroke="none" 
	d="
M336.852112,365.294739 
	C337.013123,365.415070 337.098145,365.583893 337.183136,365.752716 
	C337.047455,365.616211 336.911804,365.479706 336.852112,365.294739 
z"/>
<path fill="#050505" opacity="1.000000" stroke="none" 
	d="
M354.989380,325.967834 
	C355.005554,325.955688 354.973236,325.980011 354.989380,325.967834 
z"/>
<path fill="#080808" opacity="1.000000" stroke="none" 
	d="
M74.437378,293.448120 
	C74.464249,293.406128 74.653534,293.563538 74.653534,293.563538 
	C74.653534,293.563538 74.410500,293.490082 74.437378,293.448120 
z"/>
<path fill="#050505" opacity="1.000000" stroke="none" 
	d="
M329.450165,348.525269 
	C329.441864,348.499878 329.458466,348.550690 329.450165,348.525269 
z"/>
<path fill="#080808" opacity="1.000000" stroke="none" 
	d="
M79.097099,292.080933 
	C78.868446,292.246704 78.639793,292.412445 78.411140,292.578217 
	C78.500549,292.384766 78.589951,292.191284 78.843475,291.992371 
	C79.007584,291.986908 79.097099,292.080933 79.097099,292.080933 
z"/>
<path fill="#050505" opacity="1.000000" stroke="none" 
	d="
M366.059479,371.072021 
	C366.108948,371.025330 366.288818,371.312469 366.288818,371.312469 
	C366.288818,371.312469 366.010010,371.118713 366.059479,371.072021 
z"/>
<path fill="#050505" opacity="1.000000" stroke="none" 
	d="
M341.027130,367.925629 
	C341.027130,367.925629 341.193756,368.245789 341.193756,368.245789 
	C341.193756,368.245789 340.957153,368.164520 340.962952,368.068970 
	C340.968750,367.973450 341.027130,367.925629 341.027130,367.925629 
z"/>
<path fill="#050505" opacity="1.000000" stroke="none" 
	d="
M367.901855,349.194366 
	C367.901855,349.194366 367.706665,348.757355 367.706665,348.757355 
	C367.706665,348.757355 368.048615,348.886078 368.019470,349.004700 
	C367.990356,349.123322 367.901855,349.194366 367.901855,349.194366 
z"/>
<path fill="#050505" opacity="1.000000" stroke="none" 
	d="
M368.038086,349.092621 
	C368.085846,349.061920 368.279449,349.423523 368.279449,349.423523 
	C368.279449,349.423523 367.948425,349.340149 367.925140,349.267273 
	C367.901855,349.194366 367.990356,349.123322 368.038086,349.092621 
z"/>
<path fill="#050505" opacity="1.000000" stroke="none" 
	d="
M374.500488,352.996033 
	C374.524902,352.989136 374.476105,353.002930 374.500488,352.996033 
z"/>
<path fill="#050505" opacity="1.000000" stroke="none" 
	d="
M330.895844,357.191559 
	C330.895844,357.191559 330.709564,356.773773 330.709564,356.773773 
	C330.709564,356.773773 331.030273,356.903778 331.003723,357.015137 
	C330.977142,357.126465 330.895844,357.191559 330.895844,357.191559 
z"/>
<path fill="#050505" opacity="1.000000" stroke="none" 
	d="
M331.021729,357.099548 
	C331.066315,357.072662 331.271149,357.420898 331.271149,357.420898 
	C331.271149,357.420898 330.945007,357.336334 330.920410,357.263947 
	C330.895844,357.191559 330.977142,357.126465 331.021729,357.099548 
z"/>
<path fill="#080808" opacity="1.000000" stroke="none" 
	d="
M70.501450,290.990906 
	C70.485359,290.994904 70.517532,290.986908 70.501450,290.990906 
z"/>
<path fill="#050505" opacity="1.000000" stroke="none" 
	d="
M333.846771,361.955902 
	C333.772827,361.866913 333.698853,361.777924 333.624908,361.688934 
	C333.745758,361.642883 333.866638,361.596832 333.968964,361.701050 
	C333.950439,361.851288 333.846771,361.955902 333.846771,361.955902 
z"/>
<path fill="#050505" opacity="1.000000" stroke="none" 
	d="
M341.466461,321.054321 
	C341.428589,321.023010 341.504333,321.085602 341.466461,321.054321 
z"/>
<path fill="#050505" opacity="1.000000" stroke="none" 
	d="
M335.529785,314.969635 
	C335.556946,314.992737 335.502594,314.946533 335.529785,314.969635 
z"/>
<path fill="#050505" opacity="1.000000" stroke="none" 
	d="
M333.987915,361.787903 
	C334.025391,361.724548 334.150391,361.931183 334.150391,361.931183 
	C334.150391,361.931183 333.961151,362.031464 333.903961,361.993683 
	C333.846771,361.955902 333.950439,361.851288 333.987915,361.787903 
z"/>
<path fill="#050505" opacity="1.000000" stroke="none" 
	d="
M345.503998,363.490173 
	C345.484161,363.494995 345.523834,363.485321 345.503998,363.490173 
z"/>
<path fill="#050505" opacity="1.000000" stroke="none" 
	d="
M347.491821,372.498474 
	C347.519623,372.487885 347.463989,372.509064 347.491821,372.498474 
z"/>
<path fill="#050505" opacity="1.000000" stroke="none" 
	d="
M360.506287,373.497131 
	C360.481262,373.505432 360.531311,373.488800 360.506287,373.497131 
z"/>
<path fill="#050505" opacity="1.000000" stroke="none" 
	d="
M340.945312,368.002991 
	C340.921844,368.032562 340.973450,367.885040 341.000305,367.905334 
	C341.027130,367.925629 340.968750,367.973450 340.945312,368.002991 
z"/>
<path fill="#050505" opacity="1.000000" stroke="none" 
	d="
M343.485992,335.493683 
	C343.516541,335.480774 343.455444,335.506592 343.485992,335.493683 
z"/>
<path fill="#080808" opacity="1.000000" stroke="none" 
	d="
M70.900322,285.953125 
	C70.900322,285.953125 71.142349,286.033478 71.056610,286.034851 
	C70.970879,286.036224 70.900322,285.953125 70.900322,285.953125 
z"/>
<path fill="#080808" opacity="1.000000" stroke="none" 
	d="
M71.013077,286.070740 
	C71.055267,286.105255 70.858467,286.239685 70.858467,286.239685 
	C70.858467,286.239685 70.794823,286.034149 70.847572,285.993652 
	C70.900322,285.953125 70.970879,286.036224 71.013077,286.070740 
z"/>
<path fill="#080808" opacity="1.000000" stroke="none" 
	d="
M78.960007,291.942749 
	C78.912437,291.898560 79.108376,292.009583 79.102737,292.045258 
	C79.097099,292.080933 79.007584,291.986908 78.960007,291.942749 
z"/>
<path fill="#050505" opacity="1.000000" stroke="none" 
	d="
M335.021698,310.044037 
	C335.054443,310.073334 334.904358,310.002747 334.917816,309.975586 
	C334.931274,309.948395 334.988953,310.014740 335.021698,310.044037 
z"/>
<path fill="#050505" opacity="1.000000" stroke="none" 
	d="
M337.497131,316.509888 
	C337.485748,316.481201 337.508484,316.538605 337.497131,316.509888 
z"/>
<path fill="#050505" opacity="1.000000" stroke="none" 
	d="
M343.481018,322.491211 
	C343.512634,322.477325 343.449402,322.505127 343.481018,322.491211 
z"/>
<path fill="#050505" opacity="1.000000" stroke="none" 
	d="
M346.514526,324.503601 
	C346.512024,324.486847 346.516998,324.520325 346.514526,324.503601 
z"/>
<path fill="#050505" opacity="1.000000" stroke="none" 
	d="
M348.489319,327.495117 
	C348.519348,327.482697 348.459259,327.507507 348.489319,327.495117 
z"/>
<path fill="#050505" opacity="1.000000" stroke="none" 
	d="
M377.048859,345.903137 
	C377.048859,345.903137 376.959930,346.072021 376.969025,346.026581 
	C376.978119,345.981140 377.048859,345.903137 377.048859,345.903137 
z"/>
<path fill="#050505" opacity="1.000000" stroke="none" 
	d="
M366.958191,336.027405 
	C366.930206,336.064514 366.989227,335.863068 367.025146,335.899109 
	C367.061035,335.935150 366.986176,335.990265 366.958191,336.027405 
z"/>
<path fill="#050505" opacity="1.000000" stroke="none" 
	d="
M341.495636,336.507812 
	C341.520111,336.499878 341.471161,336.515747 341.495636,336.507812 
z"/>
<path fill="#050505" opacity="1.000000" stroke="none" 
	d="
M338.930420,338.953339 
	C338.930420,338.953339 339.073059,339.021149 339.028992,339.018677 
	C338.984955,339.016235 338.930420,338.953339 338.930420,338.953339 
z"/>
<path fill="#050505" opacity="1.000000" stroke="none" 
	d="
M339.016785,339.043091 
	C339.048584,339.069916 338.901550,339.007782 338.915985,338.980560 
	C338.930420,338.953339 338.984955,339.016235 339.016785,339.043091 
z"/>
<path fill="#050505" opacity="1.000000" stroke="none" 
	d="
M336.506775,342.496643 
	C336.482086,342.504822 336.531464,342.488495 336.506775,342.496643 
z"/>
<path fill="#050505" opacity="1.000000" stroke="none" 
	d="
M375.953888,345.103607 
	C375.953888,345.103607 376.043213,344.929932 376.033752,344.976990 
	C376.024323,345.024017 375.953888,345.103607 375.953888,345.103607 
z"/>
<path fill="#050505" opacity="1.000000" stroke="none" 
	d="
M376.939453,346.016846 
	C376.670624,345.861481 376.453064,345.657043 376.101013,345.271423 
	C375.953888,345.103607 376.024323,345.024017 376.064270,344.988800 
	C376.334015,345.144440 376.550537,345.349335 376.901306,345.735687 
	C377.048859,345.903137 376.978119,345.981140 376.939453,346.016846 
z"/>
</svg>